<svg xmlns="http://www.w3.org/2000/svg" viewBox="0 0 33.00 33.00" shape-rendering="geometricPrecision">
<rect x="11.00" y="2.00" width="1" height="1" rx="0.30" fill="#20140A"/>
<rect x="13.00" y="2.00" width="1" height="1" rx="0.30" fill="#20140A"/>
<rect x="16.00" y="2.00" width="1" height="1" rx="0.30" fill="#20140A"/>
<rect x="20.00" y="2.00" width="1" height="1" rx="0.30" fill="#20140A"/>
<rect x="21.00" y="2.00" width="1" height="1" rx="0.30" fill="#20140A"/>
<rect x="10.00" y="3.00" width="1" height="1" rx="0.30" fill="#20140A"/>
<rect x="11.00" y="3.00" width="1" height="1" rx="0.30" fill="#20140A"/>
<rect x="12.00" y="3.00" width="1" height="1" rx="0.30" fill="#20140A"/>
<rect x="13.00" y="3.00" width="1" height="1" rx="0.30" fill="#20140A"/>
<rect x="14.00" y="3.00" width="1" height="1" rx="0.30" fill="#20140A"/>
<rect x="15.00" y="3.00" width="1" height="1" rx="0.30" fill="#20140A"/>
<rect x="20.00" y="3.00" width="1" height="1" rx="0.30" fill="#20140A"/>
<rect x="21.00" y="3.00" width="1" height="1" rx="0.30" fill="#20140A"/>
<rect x="22.00" y="3.00" width="1" height="1" rx="0.30" fill="#20140A"/>
<rect x="11.00" y="4.00" width="1" height="1" rx="0.30" fill="#20140A"/>
<rect x="14.00" y="4.00" width="1" height="1" rx="0.30" fill="#20140A"/>
<rect x="17.00" y="4.00" width="1" height="1" rx="0.30" fill="#20140A"/>
<rect x="22.00" y="4.00" width="1" height="1" rx="0.30" fill="#20140A"/>
<rect x="11.00" y="5.00" width="1" height="1" rx="0.30" fill="#20140A"/>
<rect x="13.00" y="5.00" width="1" height="1" rx="0.30" fill="#20140A"/>
<rect x="15.00" y="5.00" width="1" height="1" rx="0.30" fill="#20140A"/>
<rect x="18.00" y="5.00" width="1" height="1" rx="0.30" fill="#20140A"/>
<rect x="20.00" y="5.00" width="1" height="1" rx="0.30" fill="#20140A"/>
<rect x="21.00" y="5.00" width="1" height="1" rx="0.30" fill="#20140A"/>
<rect x="10.00" y="6.00" width="1" height="1" rx="0.30" fill="#20140A"/>
<rect x="11.00" y="6.00" width="1" height="1" rx="0.30" fill="#20140A"/>
<rect x="12.00" y="6.00" width="1" height="1" rx="0.30" fill="#20140A"/>
<rect x="14.00" y="6.00" width="1" height="1" rx="0.30" fill="#20140A"/>
<rect x="15.00" y="6.00" width="1" height="1" rx="0.30" fill="#20140A"/>
<rect x="18.00" y="6.00" width="1" height="1" rx="0.30" fill="#20140A"/>
<rect x="20.00" y="6.00" width="1" height="1" rx="0.30" fill="#20140A"/>
<rect x="21.00" y="6.00" width="1" height="1" rx="0.30" fill="#20140A"/>
<rect x="12.00" y="7.00" width="1" height="1" rx="0.30" fill="#20140A"/>
<rect x="16.00" y="7.00" width="1" height="1" rx="0.30" fill="#20140A"/>
<rect x="17.00" y="7.00" width="1" height="1" rx="0.30" fill="#20140A"/>
<rect x="18.00" y="7.00" width="1" height="1" rx="0.30" fill="#20140A"/>
<rect x="19.00" y="7.00" width="1" height="1" rx="0.30" fill="#20140A"/>
<rect x="20.00" y="7.00" width="1" height="1" rx="0.30" fill="#20140A"/>
<rect x="21.00" y="7.00" width="1" height="1" rx="0.30" fill="#20140A"/>
<rect x="10.00" y="8.00" width="1" height="1" rx="0.30" fill="#20140A"/>
<rect x="12.00" y="8.00" width="1" height="1" rx="0.30" fill="#20140A"/>
<rect x="14.00" y="8.00" width="1" height="1" rx="0.30" fill="#20140A"/>
<rect x="16.00" y="8.00" width="1" height="1" rx="0.30" fill="#20140A"/>
<rect x="18.00" y="8.00" width="1" height="1" rx="0.30" fill="#20140A"/>
<rect x="20.00" y="8.00" width="1" height="1" rx="0.30" fill="#20140A"/>
<rect x="22.00" y="8.00" width="1" height="1" rx="0.30" fill="#20140A"/>
<rect x="11.00" y="9.00" width="1" height="1" rx="0.30" fill="#20140A"/>
<rect x="12.00" y="9.00" width="1" height="1" rx="0.30" fill="#20140A"/>
<rect x="13.00" y="9.00" width="1" height="1" rx="0.30" fill="#20140A"/>
<rect x="14.00" y="9.00" width="1" height="1" rx="0.30" fill="#20140A"/>
<rect x="17.00" y="9.00" width="1" height="1" rx="0.30" fill="#20140A"/>
<rect x="19.00" y="9.00" width="1" height="1" rx="0.30" fill="#20140A"/>
<rect x="20.00" y="9.00" width="1" height="1" rx="0.30" fill="#20140A"/>
<rect x="22.00" y="9.00" width="1" height="1" rx="0.30" fill="#20140A"/>
<rect x="2.00" y="10.00" width="1" height="1" rx="0.30" fill="#20140A"/>
<rect x="4.00" y="10.00" width="1" height="1" rx="0.30" fill="#20140A"/>
<rect x="6.00" y="10.00" width="1" height="1" rx="0.30" fill="#20140A"/>
<rect x="8.00" y="10.00" width="1" height="1" rx="0.30" fill="#20140A"/>
<rect x="12.00" y="10.00" width="1" height="1" rx="0.30" fill="#20140A"/>
<rect x="14.00" y="10.00" width="1" height="1" rx="0.30" fill="#20140A"/>
<rect x="18.00" y="10.00" width="1" height="1" rx="0.30" fill="#20140A"/>
<rect x="19.00" y="10.00" width="1" height="1" rx="0.30" fill="#20140A"/>
<rect x="21.00" y="10.00" width="1" height="1" rx="0.30" fill="#20140A"/>
<rect x="22.00" y="10.00" width="1" height="1" rx="0.30" fill="#20140A"/>
<rect x="26.00" y="10.00" width="1" height="1" rx="0.30" fill="#20140A"/>
<rect x="29.00" y="10.00" width="1" height="1" rx="0.30" fill="#20140A"/>
<rect x="6.00" y="11.00" width="1" height="1" rx="0.30" fill="#20140A"/>
<rect x="9.00" y="11.00" width="1" height="1" rx="0.30" fill="#20140A"/>
<rect x="10.00" y="11.00" width="1" height="1" rx="0.30" fill="#20140A"/>
<rect x="13.00" y="11.00" width="1" height="1" rx="0.30" fill="#20140A"/>
<rect x="15.00" y="11.00" width="1" height="1" rx="0.30" fill="#20140A"/>
<rect x="17.00" y="11.00" width="1" height="1" rx="0.30" fill="#20140A"/>
<rect x="18.00" y="11.00" width="1" height="1" rx="0.30" fill="#20140A"/>
<rect x="24.00" y="11.00" width="1" height="1" rx="0.30" fill="#20140A"/>
<rect x="27.00" y="11.00" width="1" height="1" rx="0.30" fill="#20140A"/>
<rect x="30.00" y="11.00" width="1" height="1" rx="0.30" fill="#20140A"/>
<rect x="2.00" y="12.00" width="1" height="1" rx="0.30" fill="#20140A"/>
<rect x="3.00" y="12.00" width="1" height="1" rx="0.30" fill="#20140A"/>
<rect x="4.00" y="12.00" width="1" height="1" rx="0.30" fill="#20140A"/>
<rect x="7.00" y="12.00" width="1" height="1" rx="0.30" fill="#20140A"/>
<rect x="8.00" y="12.00" width="1" height="1" rx="0.30" fill="#20140A"/>
<rect x="9.00" y="12.00" width="1" height="1" rx="0.30" fill="#20140A"/>
<rect x="10.00" y="12.00" width="1" height="1" rx="0.30" fill="#20140A"/>
<rect x="13.00" y="12.00" width="1" height="1" rx="0.30" fill="#20140A"/>
<rect x="16.00" y="12.00" width="1" height="1" rx="0.30" fill="#20140A"/>
<rect x="17.00" y="12.00" width="1" height="1" rx="0.30" fill="#20140A"/>
<rect x="18.00" y="12.00" width="1" height="1" rx="0.30" fill="#20140A"/>
<rect x="19.00" y="12.00" width="1" height="1" rx="0.30" fill="#20140A"/>
<rect x="24.00" y="12.00" width="1" height="1" rx="0.30" fill="#20140A"/>
<rect x="25.00" y="12.00" width="1" height="1" rx="0.30" fill="#20140A"/>
<rect x="26.00" y="12.00" width="1" height="1" rx="0.30" fill="#20140A"/>
<rect x="28.00" y="12.00" width="1" height="1" rx="0.30" fill="#20140A"/>
<rect x="29.00" y="12.00" width="1" height="1" rx="0.30" fill="#20140A"/>
<rect x="30.00" y="12.00" width="1" height="1" rx="0.30" fill="#20140A"/>
<rect x="3.00" y="13.00" width="1" height="1" rx="0.30" fill="#20140A"/>
<rect x="7.00" y="13.00" width="1" height="1" rx="0.30" fill="#20140A"/>
<rect x="9.00" y="13.00" width="1" height="1" rx="0.30" fill="#20140A"/>
<rect x="10.00" y="13.00" width="1" height="1" rx="0.30" fill="#20140A"/>
<rect x="13.00" y="13.00" width="1" height="1" rx="0.30" fill="#20140A"/>
<rect x="15.00" y="13.00" width="1" height="1" rx="0.30" fill="#20140A"/>
<rect x="16.00" y="13.00" width="1" height="1" rx="0.30" fill="#20140A"/>
<rect x="18.00" y="13.00" width="1" height="1" rx="0.30" fill="#20140A"/>
<rect x="19.00" y="13.00" width="1" height="1" rx="0.30" fill="#20140A"/>
<rect x="23.00" y="13.00" width="1" height="1" rx="0.30" fill="#20140A"/>
<rect x="26.00" y="13.00" width="1" height="1" rx="0.30" fill="#20140A"/>
<rect x="29.00" y="13.00" width="1" height="1" rx="0.30" fill="#20140A"/>
<rect x="6.00" y="14.00" width="1" height="1" rx="0.30" fill="#20140A"/>
<rect x="8.00" y="14.00" width="1" height="1" rx="0.30" fill="#20140A"/>
<rect x="14.00" y="14.00" width="1" height="1" rx="0.30" fill="#20140A"/>
<rect x="16.00" y="14.00" width="1" height="1" rx="0.30" fill="#20140A"/>
<rect x="17.00" y="14.00" width="1" height="1" rx="0.30" fill="#20140A"/>
<rect x="19.00" y="14.00" width="1" height="1" rx="0.30" fill="#20140A"/>
<rect x="23.00" y="14.00" width="1" height="1" rx="0.30" fill="#20140A"/>
<rect x="24.00" y="14.00" width="1" height="1" rx="0.30" fill="#20140A"/>
<rect x="27.00" y="14.00" width="1" height="1" rx="0.30" fill="#20140A"/>
<rect x="29.00" y="14.00" width="1" height="1" rx="0.30" fill="#20140A"/>
<rect x="30.00" y="14.00" width="1" height="1" rx="0.30" fill="#20140A"/>
<rect x="4.00" y="15.00" width="1" height="1" rx="0.30" fill="#20140A"/>
<rect x="6.00" y="15.00" width="1" height="1" rx="0.30" fill="#20140A"/>
<rect x="7.00" y="15.00" width="1" height="1" rx="0.30" fill="#20140A"/>
<rect x="9.00" y="15.00" width="1" height="1" rx="0.30" fill="#20140A"/>
<rect x="13.00" y="15.00" width="1" height="1" rx="0.30" fill="#20140A"/>
<rect x="14.00" y="15.00" width="1" height="1" rx="0.30" fill="#20140A"/>
<rect x="16.00" y="15.00" width="1" height="1" rx="0.30" fill="#20140A"/>
<rect x="17.00" y="15.00" width="1" height="1" rx="0.30" fill="#20140A"/>
<rect x="19.00" y="15.00" width="1" height="1" rx="0.30" fill="#20140A"/>
<rect x="22.00" y="15.00" width="1" height="1" rx="0.30" fill="#20140A"/>
<rect x="23.00" y="15.00" width="1" height="1" rx="0.30" fill="#20140A"/>
<rect x="24.00" y="15.00" width="1" height="1" rx="0.30" fill="#20140A"/>
<rect x="25.00" y="15.00" width="1" height="1" rx="0.30" fill="#20140A"/>
<rect x="27.00" y="15.00" width="1" height="1" rx="0.30" fill="#20140A"/>
<rect x="30.00" y="15.00" width="1" height="1" rx="0.30" fill="#20140A"/>
<rect x="2.00" y="16.00" width="1" height="1" rx="0.30" fill="#20140A"/>
<rect x="3.00" y="16.00" width="1" height="1" rx="0.30" fill="#20140A"/>
<rect x="4.00" y="16.00" width="1" height="1" rx="0.30" fill="#20140A"/>
<rect x="5.00" y="16.00" width="1" height="1" rx="0.30" fill="#20140A"/>
<rect x="7.00" y="16.00" width="1" height="1" rx="0.30" fill="#20140A"/>
<rect x="8.00" y="16.00" width="1" height="1" rx="0.30" fill="#20140A"/>
<rect x="9.00" y="16.00" width="1" height="1" rx="0.30" fill="#20140A"/>
<rect x="10.00" y="16.00" width="1" height="1" rx="0.30" fill="#20140A"/>
<rect x="12.00" y="16.00" width="1" height="1" rx="0.30" fill="#20140A"/>
<rect x="14.00" y="16.00" width="1" height="1" rx="0.30" fill="#20140A"/>
<rect x="15.00" y="16.00" width="1" height="1" rx="0.30" fill="#20140A"/>
<rect x="19.00" y="16.00" width="1" height="1" rx="0.30" fill="#20140A"/>
<rect x="20.00" y="16.00" width="1" height="1" rx="0.30" fill="#20140A"/>
<rect x="22.00" y="16.00" width="1" height="1" rx="0.30" fill="#20140A"/>
<rect x="24.00" y="16.00" width="1" height="1" rx="0.30" fill="#20140A"/>
<rect x="27.00" y="16.00" width="1" height="1" rx="0.30" fill="#20140A"/>
<rect x="29.00" y="16.00" width="1" height="1" rx="0.30" fill="#20140A"/>
<rect x="30.00" y="16.00" width="1" height="1" rx="0.30" fill="#20140A"/>
<rect x="3.00" y="17.00" width="1" height="1" rx="0.30" fill="#20140A"/>
<rect x="6.00" y="17.00" width="1" height="1" rx="0.30" fill="#20140A"/>
<rect x="10.00" y="17.00" width="1" height="1" rx="0.30" fill="#20140A"/>
<rect x="11.00" y="17.00" width="1" height="1" rx="0.30" fill="#20140A"/>
<rect x="12.00" y="17.00" width="1" height="1" rx="0.30" fill="#20140A"/>
<rect x="13.00" y="17.00" width="1" height="1" rx="0.30" fill="#20140A"/>
<rect x="14.00" y="17.00" width="1" height="1" rx="0.30" fill="#20140A"/>
<rect x="17.00" y="17.00" width="1" height="1" rx="0.30" fill="#20140A"/>
<rect x="19.00" y="17.00" width="1" height="1" rx="0.30" fill="#20140A"/>
<rect x="20.00" y="17.00" width="1" height="1" rx="0.30" fill="#20140A"/>
<rect x="26.00" y="17.00" width="1" height="1" rx="0.30" fill="#20140A"/>
<rect x="27.00" y="17.00" width="1" height="1" rx="0.30" fill="#20140A"/>
<rect x="29.00" y="17.00" width="1" height="1" rx="0.30" fill="#20140A"/>
<rect x="3.00" y="18.00" width="1" height="1" rx="0.30" fill="#20140A"/>
<rect x="4.00" y="18.00" width="1" height="1" rx="0.30" fill="#20140A"/>
<rect x="8.00" y="18.00" width="1" height="1" rx="0.30" fill="#20140A"/>
<rect x="13.00" y="18.00" width="1" height="1" rx="0.30" fill="#20140A"/>
<rect x="18.00" y="18.00" width="1" height="1" rx="0.30" fill="#20140A"/>
<rect x="19.00" y="18.00" width="1" height="1" rx="0.30" fill="#20140A"/>
<rect x="23.00" y="18.00" width="1" height="1" rx="0.30" fill="#20140A"/>
<rect x="24.00" y="18.00" width="1" height="1" rx="0.30" fill="#20140A"/>
<rect x="27.00" y="18.00" width="1" height="1" rx="0.30" fill="#20140A"/>
<rect x="29.00" y="18.00" width="1" height="1" rx="0.30" fill="#20140A"/>
<rect x="30.00" y="18.00" width="1" height="1" rx="0.30" fill="#20140A"/>
<rect x="4.00" y="19.00" width="1" height="1" rx="0.30" fill="#20140A"/>
<rect x="5.00" y="19.00" width="1" height="1" rx="0.30" fill="#20140A"/>
<rect x="6.00" y="19.00" width="1" height="1" rx="0.30" fill="#20140A"/>
<rect x="7.00" y="19.00" width="1" height="1" rx="0.30" fill="#20140A"/>
<rect x="10.00" y="19.00" width="1" height="1" rx="0.30" fill="#20140A"/>
<rect x="11.00" y="19.00" width="1" height="1" rx="0.30" fill="#20140A"/>
<rect x="12.00" y="19.00" width="1" height="1" rx="0.30" fill="#20140A"/>
<rect x="13.00" y="19.00" width="1" height="1" rx="0.30" fill="#20140A"/>
<rect x="14.00" y="19.00" width="1" height="1" rx="0.30" fill="#20140A"/>
<rect x="15.00" y="19.00" width="1" height="1" rx="0.30" fill="#20140A"/>
<rect x="17.00" y="19.00" width="1" height="1" rx="0.30" fill="#20140A"/>
<rect x="18.00" y="19.00" width="1" height="1" rx="0.30" fill="#20140A"/>
<rect x="20.00" y="19.00" width="1" height="1" rx="0.30" fill="#20140A"/>
<rect x="22.00" y="19.00" width="1" height="1" rx="0.30" fill="#20140A"/>
<rect x="24.00" y="19.00" width="1" height="1" rx="0.30" fill="#20140A"/>
<rect x="27.00" y="19.00" width="1" height="1" rx="0.30" fill="#20140A"/>
<rect x="28.00" y="19.00" width="1" height="1" rx="0.30" fill="#20140A"/>
<rect x="30.00" y="19.00" width="1" height="1" rx="0.30" fill="#20140A"/>
<rect x="2.00" y="20.00" width="1" height="1" rx="0.30" fill="#20140A"/>
<rect x="4.00" y="20.00" width="1" height="1" rx="0.30" fill="#20140A"/>
<rect x="8.00" y="20.00" width="1" height="1" rx="0.30" fill="#20140A"/>
<rect x="10.00" y="20.00" width="1" height="1" rx="0.30" fill="#20140A"/>
<rect x="11.00" y="20.00" width="1" height="1" rx="0.30" fill="#20140A"/>
<rect x="16.00" y="20.00" width="1" height="1" rx="0.30" fill="#20140A"/>
<rect x="17.00" y="20.00" width="1" height="1" rx="0.30" fill="#20140A"/>
<rect x="18.00" y="20.00" width="1" height="1" rx="0.30" fill="#20140A"/>
<rect x="20.00" y="20.00" width="1" height="1" rx="0.30" fill="#20140A"/>
<rect x="24.00" y="20.00" width="1" height="1" rx="0.30" fill="#20140A"/>
<rect x="25.00" y="20.00" width="1" height="1" rx="0.30" fill="#20140A"/>
<rect x="26.00" y="20.00" width="1" height="1" rx="0.30" fill="#20140A"/>
<rect x="29.00" y="20.00" width="1" height="1" rx="0.30" fill="#20140A"/>
<rect x="30.00" y="20.00" width="1" height="1" rx="0.30" fill="#20140A"/>
<rect x="3.00" y="21.00" width="1" height="1" rx="0.30" fill="#20140A"/>
<rect x="5.00" y="21.00" width="1" height="1" rx="0.30" fill="#20140A"/>
<rect x="9.00" y="21.00" width="1" height="1" rx="0.30" fill="#20140A"/>
<rect x="10.00" y="21.00" width="1" height="1" rx="0.30" fill="#20140A"/>
<rect x="12.00" y="21.00" width="1" height="1" rx="0.30" fill="#20140A"/>
<rect x="14.00" y="21.00" width="1" height="1" rx="0.30" fill="#20140A"/>
<rect x="15.00" y="21.00" width="1" height="1" rx="0.30" fill="#20140A"/>
<rect x="16.00" y="21.00" width="1" height="1" rx="0.30" fill="#20140A"/>
<rect x="18.00" y="21.00" width="1" height="1" rx="0.30" fill="#20140A"/>
<rect x="19.00" y="21.00" width="1" height="1" rx="0.30" fill="#20140A"/>
<rect x="20.00" y="21.00" width="1" height="1" rx="0.30" fill="#20140A"/>
<rect x="21.00" y="21.00" width="1" height="1" rx="0.30" fill="#20140A"/>
<rect x="22.00" y="21.00" width="1" height="1" rx="0.30" fill="#20140A"/>
<rect x="23.00" y="21.00" width="1" height="1" rx="0.30" fill="#20140A"/>
<rect x="24.00" y="21.00" width="1" height="1" rx="0.30" fill="#20140A"/>
<rect x="25.00" y="21.00" width="1" height="1" rx="0.30" fill="#20140A"/>
<rect x="27.00" y="21.00" width="1" height="1" rx="0.30" fill="#20140A"/>
<rect x="29.00" y="21.00" width="1" height="1" rx="0.30" fill="#20140A"/>
<rect x="2.00" y="22.00" width="1" height="1" rx="0.30" fill="#20140A"/>
<rect x="5.00" y="22.00" width="1" height="1" rx="0.30" fill="#20140A"/>
<rect x="6.00" y="22.00" width="1" height="1" rx="0.30" fill="#20140A"/>
<rect x="7.00" y="22.00" width="1" height="1" rx="0.30" fill="#20140A"/>
<rect x="8.00" y="22.00" width="1" height="1" rx="0.30" fill="#20140A"/>
<rect x="10.00" y="22.00" width="1" height="1" rx="0.30" fill="#20140A"/>
<rect x="11.00" y="22.00" width="1" height="1" rx="0.30" fill="#20140A"/>
<rect x="16.00" y="22.00" width="1" height="1" rx="0.30" fill="#20140A"/>
<rect x="17.00" y="22.00" width="1" height="1" rx="0.30" fill="#20140A"/>
<rect x="20.00" y="22.00" width="1" height="1" rx="0.30" fill="#20140A"/>
<rect x="22.00" y="22.00" width="1" height="1" rx="0.30" fill="#20140A"/>
<rect x="23.00" y="22.00" width="1" height="1" rx="0.30" fill="#20140A"/>
<rect x="24.00" y="22.00" width="1" height="1" rx="0.30" fill="#20140A"/>
<rect x="25.00" y="22.00" width="1" height="1" rx="0.30" fill="#20140A"/>
<rect x="26.00" y="22.00" width="1" height="1" rx="0.30" fill="#20140A"/>
<rect x="10.00" y="23.00" width="1" height="1" rx="0.30" fill="#20140A"/>
<rect x="11.00" y="23.00" width="1" height="1" rx="0.30" fill="#20140A"/>
<rect x="13.00" y="23.00" width="1" height="1" rx="0.30" fill="#20140A"/>
<rect x="16.00" y="23.00" width="1" height="1" rx="0.30" fill="#20140A"/>
<rect x="17.00" y="23.00" width="1" height="1" rx="0.30" fill="#20140A"/>
<rect x="21.00" y="23.00" width="1" height="1" rx="0.30" fill="#20140A"/>
<rect x="22.00" y="23.00" width="1" height="1" rx="0.30" fill="#20140A"/>
<rect x="26.00" y="23.00" width="1" height="1" rx="0.30" fill="#20140A"/>
<rect x="28.00" y="23.00" width="1" height="1" rx="0.30" fill="#20140A"/>
<rect x="29.00" y="23.00" width="1" height="1" rx="0.30" fill="#20140A"/>
<rect x="30.00" y="23.00" width="1" height="1" rx="0.30" fill="#20140A"/>
<rect x="14.00" y="24.00" width="1" height="1" rx="0.30" fill="#20140A"/>
<rect x="15.00" y="24.00" width="1" height="1" rx="0.30" fill="#20140A"/>
<rect x="19.00" y="24.00" width="1" height="1" rx="0.30" fill="#20140A"/>
<rect x="21.00" y="24.00" width="1" height="1" rx="0.30" fill="#20140A"/>
<rect x="22.00" y="24.00" width="1" height="1" rx="0.30" fill="#20140A"/>
<rect x="24.00" y="24.00" width="1" height="1" rx="0.30" fill="#20140A"/>
<rect x="26.00" y="24.00" width="1" height="1" rx="0.30" fill="#20140A"/>
<rect x="27.00" y="24.00" width="1" height="1" rx="0.30" fill="#20140A"/>
<rect x="29.00" y="24.00" width="1" height="1" rx="0.30" fill="#20140A"/>
<rect x="30.00" y="24.00" width="1" height="1" rx="0.30" fill="#20140A"/>
<rect x="12.00" y="25.00" width="1" height="1" rx="0.30" fill="#20140A"/>
<rect x="14.00" y="25.00" width="1" height="1" rx="0.30" fill="#20140A"/>
<rect x="17.00" y="25.00" width="1" height="1" rx="0.30" fill="#20140A"/>
<rect x="22.00" y="25.00" width="1" height="1" rx="0.30" fill="#20140A"/>
<rect x="26.00" y="25.00" width="1" height="1" rx="0.30" fill="#20140A"/>
<rect x="27.00" y="25.00" width="1" height="1" rx="0.30" fill="#20140A"/>
<rect x="30.00" y="25.00" width="1" height="1" rx="0.30" fill="#20140A"/>
<rect x="10.00" y="26.00" width="1" height="1" rx="0.30" fill="#20140A"/>
<rect x="13.00" y="26.00" width="1" height="1" rx="0.30" fill="#20140A"/>
<rect x="14.00" y="26.00" width="1" height="1" rx="0.30" fill="#20140A"/>
<rect x="18.00" y="26.00" width="1" height="1" rx="0.30" fill="#20140A"/>
<rect x="22.00" y="26.00" width="1" height="1" rx="0.30" fill="#20140A"/>
<rect x="23.00" y="26.00" width="1" height="1" rx="0.30" fill="#20140A"/>
<rect x="24.00" y="26.00" width="1" height="1" rx="0.30" fill="#20140A"/>
<rect x="25.00" y="26.00" width="1" height="1" rx="0.30" fill="#20140A"/>
<rect x="26.00" y="26.00" width="1" height="1" rx="0.30" fill="#20140A"/>
<rect x="11.00" y="27.00" width="1" height="1" rx="0.30" fill="#20140A"/>
<rect x="17.00" y="27.00" width="1" height="1" rx="0.30" fill="#20140A"/>
<rect x="18.00" y="27.00" width="1" height="1" rx="0.30" fill="#20140A"/>
<rect x="19.00" y="27.00" width="1" height="1" rx="0.30" fill="#20140A"/>
<rect x="21.00" y="27.00" width="1" height="1" rx="0.30" fill="#20140A"/>
<rect x="22.00" y="27.00" width="1" height="1" rx="0.30" fill="#20140A"/>
<rect x="25.00" y="27.00" width="1" height="1" rx="0.30" fill="#20140A"/>
<rect x="26.00" y="27.00" width="1" height="1" rx="0.30" fill="#20140A"/>
<rect x="28.00" y="27.00" width="1" height="1" rx="0.30" fill="#20140A"/>
<rect x="10.00" y="28.00" width="1" height="1" rx="0.30" fill="#20140A"/>
<rect x="12.00" y="28.00" width="1" height="1" rx="0.30" fill="#20140A"/>
<rect x="13.00" y="28.00" width="1" height="1" rx="0.30" fill="#20140A"/>
<rect x="14.00" y="28.00" width="1" height="1" rx="0.30" fill="#20140A"/>
<rect x="15.00" y="28.00" width="1" height="1" rx="0.30" fill="#20140A"/>
<rect x="16.00" y="28.00" width="1" height="1" rx="0.30" fill="#20140A"/>
<rect x="17.00" y="28.00" width="1" height="1" rx="0.30" fill="#20140A"/>
<rect x="18.00" y="28.00" width="1" height="1" rx="0.30" fill="#20140A"/>
<rect x="20.00" y="28.00" width="1" height="1" rx="0.30" fill="#20140A"/>
<rect x="21.00" y="28.00" width="1" height="1" rx="0.30" fill="#20140A"/>
<rect x="23.00" y="28.00" width="1" height="1" rx="0.30" fill="#20140A"/>
<rect x="25.00" y="28.00" width="1" height="1" rx="0.30" fill="#20140A"/>
<rect x="26.00" y="28.00" width="1" height="1" rx="0.30" fill="#20140A"/>
<rect x="27.00" y="28.00" width="1" height="1" rx="0.30" fill="#20140A"/>
<rect x="30.00" y="28.00" width="1" height="1" rx="0.30" fill="#20140A"/>
<rect x="11.00" y="29.00" width="1" height="1" rx="0.30" fill="#20140A"/>
<rect x="12.00" y="29.00" width="1" height="1" rx="0.30" fill="#20140A"/>
<rect x="15.00" y="29.00" width="1" height="1" rx="0.30" fill="#20140A"/>
<rect x="16.00" y="29.00" width="1" height="1" rx="0.30" fill="#20140A"/>
<rect x="18.00" y="29.00" width="1" height="1" rx="0.30" fill="#20140A"/>
<rect x="19.00" y="29.00" width="1" height="1" rx="0.30" fill="#20140A"/>
<rect x="20.00" y="29.00" width="1" height="1" rx="0.30" fill="#20140A"/>
<rect x="21.00" y="29.00" width="1" height="1" rx="0.30" fill="#20140A"/>
<rect x="22.00" y="29.00" width="1" height="1" rx="0.30" fill="#20140A"/>
<rect x="25.00" y="29.00" width="1" height="1" rx="0.30" fill="#20140A"/>
<rect x="29.00" y="29.00" width="1" height="1" rx="0.30" fill="#20140A"/>
<rect x="10.00" y="30.00" width="1" height="1" rx="0.30" fill="#20140A"/>
<rect x="13.00" y="30.00" width="1" height="1" rx="0.30" fill="#20140A"/>
<rect x="16.00" y="30.00" width="1" height="1" rx="0.30" fill="#20140A"/>
<rect x="17.00" y="30.00" width="1" height="1" rx="0.30" fill="#20140A"/>
<rect x="20.00" y="30.00" width="1" height="1" rx="0.30" fill="#20140A"/>
<rect x="21.00" y="30.00" width="1" height="1" rx="0.30" fill="#20140A"/>
<rect x="22.00" y="30.00" width="1" height="1" rx="0.30" fill="#20140A"/>
<rect x="24.00" y="30.00" width="1" height="1" rx="0.30" fill="#20140A"/>
<rect x="26.00" y="30.00" width="1" height="1" rx="0.30" fill="#20140A"/>
<rect x="27.00" y="30.00" width="1" height="1" rx="0.30" fill="#20140A"/>
<rect x="29.00" y="30.00" width="1" height="1" rx="0.30" fill="#20140A"/>
<rect x="30.00" y="30.00" width="1" height="1" rx="0.30" fill="#20140A"/>
<rect x="2.50" y="2.50" width="6" height="6" rx="1.7" fill="none" stroke="#C5631F" stroke-width="1"/>
<rect x="4.00" y="4.00" width="3" height="3" rx="0.9" fill="#C5631F"/>
<rect x="24.50" y="2.50" width="6" height="6" rx="1.7" fill="none" stroke="#C5631F" stroke-width="1"/>
<rect x="26.00" y="4.00" width="3" height="3" rx="0.9" fill="#C5631F"/>
<rect x="2.50" y="24.50" width="6" height="6" rx="1.7" fill="none" stroke="#C5631F" stroke-width="1"/>
<rect x="4.00" y="26.00" width="3" height="3" rx="0.9" fill="#C5631F"/>
</svg>
