<svg xmlns="http://www.w3.org/2000/svg" viewBox="0 0 848 736"><path d="M2260.00048828125 -212.99993896484375Q2251.4005126953125 -197.7999267578125 2236.1004943847656 -182.09988403320312Q2220.8004760742188 -166.39984130859375 2197.200439453125 -155.49981689453125Q2173.6004028320312 -144.59979248046875 2139.400390625 -144.59979248046875Q2111.600341796875 -144.59979248046875 2086.1002807617188 -154.29983520507812Q2060.6002197265625 -163.9998779296875 2044.0001831054688 -186.699951171875Q2027.400146484375 -209.4000244140625 2027.400146484375 -247.80010986328125Q2027.400146484375 -309.80010986328125 2072.3001403808594 -349.30023193359375Q2117.2001342773438 -388.80035400390625 2196.4003295898438 -416.80035400390625Q2217.4005126953125 -424.400390625 2249.6005249023438 -435.20037841796875Q2281.800537109375 -446.0003662109375 2318.50048828125 -458.8003234863281Q2355.200439453125 -471.60028076171875 2391.400390625 -485.6002197265625Q2427.600341796875 -499.60015869140625 2456.6004028320312 -512.0001220703125Q2486.2003784179688 -525.0000610351562 2510.8004760742188 -540.0Q2535.4005737304688 -554.9999389648438 2550.6006774902344 -574.8999328613281Q2565.80078125 -594.7999267578125 2565.80078125 -621.6000366210938Q2565.80078125 -659.0000610351562 2537.2007751464844 -682.8000183105469Q2508.6007690429688 -706.5999755859375 2466.80078125 -706.5999755859375Q2442.8009033203125 -706.5999755859375 2435.8008422851562 -698.6000366210938Q2450.4010620117188 -691.5999755859375 2457.3011779785156 -679.4998779296875Q2464.2012939453125 -667.3997802734375 2464.2012939453125 -653.7996215820312Q2464.2012939453125 -636.5994873046875 2453.501220703125 -622.3994140625Q2442.8011474609375 -608.1993408203125 2426.0010375976562 -599.8993225097656Q2409.200927734375 -591.5993041992188 2390.4008178710938 -591.5993041992188Q2367.2005615234375 -591.5993041992188 2351.700408935547 -604.7994384765625Q2336.2002563476562 -617.9995727539062 2336.2002563476562 -640.7997436523438Q2336.2002563476562 -664.599853515625 2352.100311279297 -681.5999145507812Q2368.0003662109375 -698.5999755859375 2390.2005004882812 -708.0Q2408.2005615234375 -716.2000122070312 2427.900634765625 -719.1000061035156Q2447.6007080078125 -722.0 2466.0006713867188 -722.0Q2503.6007080078125 -722.0 2532.500762939453 -709.6999816894531Q2561.4008178710938 -697.3999633789062 2578.0008544921875 -671.0998840332031Q2594.6008911132812 -644.7998046875 2594.6008911132812 -601.599609375Q2594.6008911132812 -562.19921875 2579.1007080078125 -530.7990417480469Q2563.6005249023438 -499.39886474609375 2531.500213623047 -473.9988098144531Q2499.39990234375 -448.5987548828125 2449.99951171875 -426.39874267578125Q2422.7994995117188 -414.19879150390625 2385.9996337890625 -400.098876953125Q2349.1997680664062 -385.99896240234375 2309.0999450683594 -371.59906005859375Q2269.0001220703125 -357.19915771484375 2231.4002685546875 -343.89923095703125Q2193.8004150390625 -330.59930419921875 2164.200439453125 -319.1993408203125Q2142.2003173828125 -310.99932861328125 2118.400390625 -298.7993469238281Q2094.6004638671875 -286.599365234375 2078.800567626953 -268.59942626953125Q2063.0006713867188 -250.5994873046875 2063.0006713867188 -224.79962158203125Q2063.0006713867188 -193.59967041015625 2087.400604248047 -177.59976196289062Q2111.800537109375 -161.599853515625 2143.400390625 -161.599853515625Q2174.0003662109375 -161.599853515625 2195.100372314453 -173.29983520507812Q2216.2003784179688 -184.99981689453125 2229.0003967285156 -199.1998291015625Q2241.8004150390625 -213.39984130859375 2246.200439453125 -221.59991455078125ZM2144.0006713867188 -562.000244140625Q2169.8005981445312 -562.000244140625 2186.7005615234375 -576.2002258300781Q2203.6005249023438 -590.4002075195312 2203.6005249023438 -615.0001220703125Q2203.6005249023438 -645.5999145507812 2178.3006896972656 -663.3998107910156Q2153.0008544921875 -681.19970703125 2115.0010375976562 -681.19970703125Q2075.8011474609375 -681.19970703125 2044.1011657714844 -662.1997375488281Q2012.4011840820312 -643.1997680664062 1994.1011657714844 -610.1997985839844Q1975.8011474609375 -577.1998291015625 1975.8011474609375 -534.3998413085938Q1975.8011474609375 -517.0 1980.0010986328125 -498.3001708984375Q1984.2010498046875 -479.600341796875 1994.0009155273438 -462.00048828125Q2012.0009155273438 -465.00048828125 2030.0009155273438 -466.50048828125Q2048.0009155273438 -468.00048828125 2057.0009155273438 -468.00048828125Q2093.0009155273438 -468.00048828125 2093.0009155273438 -447.00048828125Q2093.0009155273438 -436.00048828125 2083.0009155273438 -431.00048828125Q2073.0009155273438 -426.00048828125 2062.0009155273438 -426.00048828125Q2043.0009155273438 -426.00048828125 2023.5009155273438 -434.50048828125Q2004.0009155273438 -443.00048828125 1993.0009155273438 -448.00048828125Q1951.2011108398438 -435.00048828125 1918.9012451171875 -405.0004577636719Q1886.6013793945312 -375.00042724609375 1868.3014526367188 -334.70037841796875Q1850.0015258789062 -294.40032958984375 1850.0015258789062 -247.80029296875Q1850.0015258789062 -187.4002685546875 1880.8014221191406 -146.70025634765625Q1911.601318359375 -106.000244140625 1966.6011962890625 -85.000244140625Q2021.60107421875 -64.000244140625 2092.801025390625 -64.000244140625Q2148.6008911132812 -64.000244140625 2197.900848388672 -76.50021362304688Q2247.2008056640625 -89.00018310546875 2284.800811767578 -113.00015258789062Q2322.4008178710938 -137.0001220703125 2343.900848388672 -171.70013427734375Q2365.40087890625 -206.400146484375 2365.40087890625 -250.000244140625Q2365.40087890625 -287.20025634765625 2347.0008850097656 -325.0002136230469Q2328.6008911132812 -362.8001708984375 2285.2008056640625 -386.80010986328125L2298.6007690429688 -394.60015869140625Q2340.600830078125 -367.00030517578125 2363.100860595703 -327.6003112792969Q2385.6008911132812 -288.2003173828125 2385.6008911132812 -238.2003173828125Q2385.6008911132812 -189.80035400390625 2363.5008850097656 -144.60031127929688Q2341.40087890625 -99.4002685546875 2297.7008361816406 -63.7001953125Q2254.0007934570312 -28.0001220703125 2190.400665283203 -7.00006103515625Q2126.800537109375 14.0 2043.0003051757812 14.0Q1954.4002685546875 14.0 1887.900146484375 -11.29998779296875Q1821.4000244140625 -36.5999755859375 1784.1999206542969 -84.20001220703125Q1746.9998168945312 -131.800048828125 1746.9998168945312 -199.8001708984375Q1746.9998168945312 -261.4002685546875 1777.0999145507812 -313.100341796875Q1807.2000122070312 -364.8004150390625 1859.7002563476562 -401.90045166015625Q1912.2005004882812 -439.00048828125 1980.0009155273438 -456.00048828125Q1942.20068359375 -474.00042724609375 1923.1006164550781 -503.400390625Q1904.0005493164062 -532.8003540039062 1904.0005493164062 -565.4003295898438Q1904.0005493164062 -610.000244140625 1934.5005187988281 -640.3001708984375Q1965.00048828125 -670.60009765625 2010.2004699707031 -686.300048828125Q2055.4004516601562 -702.0 2101.00048828125 -702.0Q2159.400634765625 -702.0 2192.2005920410156 -678.5000305175781Q2225.0005493164062 -655.0000610351562 2225.0005493164062 -617.2001342773438Q2225.0005493164062 -580.0001831054688 2198.1005859375 -562.0002136230469Q2171.2006225585938 -544.000244140625 2142.6007080078125 -544.000244140625Z" fill="#17100B" transform="translate(-1747 722)"/></svg>