<svg xmlns="http://www.w3.org/2000/svg" viewBox="-5.8 -767.0 6492.2 826.0"><defs><linearGradient id="amber" gradientUnits="userSpaceOnUse" x1="1747.0" y1="-354.0" x2="2594.6" y2="-280.3"><stop offset="0%" stop-color="#F7B658"/><stop offset="52%" stop-color="#EE8C2C"/><stop offset="100%" stop-color="#DC6716"/></linearGradient></defs><path d="M39.1998291015625 -708.0Q61.7999267578125 -707.0 98.50009155273438 -706.0Q135.20025634765625 -705.0 171.200439453125 -705.0Q218.80047607421875 -705.0 262.4005126953125 -706.0Q306.00054931640625 -707.0 324.2005615234375 -707.0Q451.40093994140625 -707.0 514.3011169433594 -652.0Q577.2012939453125 -597.0 577.2012939453125 -510.0Q577.2012939453125 -474.0 564.6012573242188 -434.5Q552.001220703125 -395.0 521.2011413574219 -361.5Q490.40106201171875 -328.0 437.1009216308594 -307.0Q383.80078125 -286.0 302.2005615234375 -286.0H204.200439453125V-306.0H292.2005615234375Q359.2003173828125 -306.0 394.50018310546875 -333.0Q429.800048828125 -360.0 442.5 -404.0Q455.199951171875 -448.0 455.199951171875 -499.0Q455.199951171875 -594.0 420.900146484375 -641.0Q386.600341796875 -688.0 303.2008056640625 -688.0Q259.6009521484375 -688.0 246.4010009765625 -671.0Q233.2010498046875 -654.0 233.2010498046875 -602.0V-108.0001220703125Q233.2010498046875 -71.00006103515625 240.90106201171875 -52.60003662109375Q248.60107421875 -34.20001220703125 271.0010986328125 -28.20001220703125Q293.401123046875 -22.20001220703125 336.201171875 -20.60003662109375V0.0Q308.60107421875 -1.79998779296875 265.60089111328125 -2.399993896484375Q222.6007080078125 -3.0 177.40045166015625 -3.0Q137.0003662109375 -3.0 100.6002197265625 -2.399993896484375Q64.2000732421875 -1.79998779296875 39.1998291015625 0.0V-20.0Q72.59979248046875 -22.0 89.59976196289062 -28.0Q106.5997314453125 -34.0 112.39971923828125 -52.0Q118.19970703125 -70.0 118.19970703125 -106.0V-602.0Q118.19970703125 -639.0 112.39971923828125 -656.5Q106.5997314453125 -674.0 89.499755859375 -680.5Q72.3997802734375 -687.0 39.1998291015625 -688.0Z M761.9998168945312 7.0Q719.7997436523438 7.0 689.7997436523438 -9.000030517578125Q659.7997436523438 -25.00006103515625 644.6997680664062 -53.2000732421875Q629.5997924804688 -81.40008544921875 629.5997924804688 -117.4000244140625Q629.5997924804688 -161.0 649.7997741699219 -188.69998168945312Q669.999755859375 -216.39996337890625 701.6997375488281 -233.29995727539062Q733.3997192382812 -250.199951171875 768.5997009277344 -261.5999450683594Q803.7996826171875 -272.99993896484375 835.4996643066406 -283.49993896484375Q867.1996459960938 -293.99993896484375 887.3996276855469 -308.0999450683594Q907.599609375 -322.199951171875 907.599609375 -345.199951171875V-412.60028076171875Q907.599609375 -449.39996337890625 896.4996948242188 -470.7999267578125Q885.3997802734375 -492.19989013671875 865.599853515625 -500.9999694824219Q845.7999267578125 -509.800048828125 818.9998779296875 -509.800048828125Q795.7999877929688 -509.800048828125 770.1001586914062 -503.3000793457031Q744.4003295898438 -496.80010986328125 728.6004028320312 -477.60028076171875Q750.8005981445312 -471.8001708984375 765.2006225585938 -454.3000793457031Q779.6006469726562 -436.79998779296875 779.6006469726562 -411.199951171875Q779.6006469726562 -383.19976806640625 761.2005004882812 -366.9996643066406Q742.8003540039062 -350.799560546875 715.2001953125 -350.799560546875Q684.0000610351562 -350.799560546875 668.7999572753906 -370.5996398925781Q653.599853515625 -390.39971923828125 653.599853515625 -416.19989013671875Q653.599853515625 -443.199951171875 667.0998840332031 -460.3000183105469Q680.5999145507812 -477.40008544921875 702.800048828125 -492.20013427734375Q727.2001342773438 -508.400146484375 764.8002014160156 -519.10009765625Q802.4002685546875 -529.800048828125 848.4002685546875 -529.800048828125Q891.0003662109375 -529.800048828125 922.6005249023438 -520.300048828125Q954.20068359375 -510.800048828125 975.4008178710938 -490.19989013671875Q1000.4007568359375 -466.59991455078125 1008.000732421875 -432.3999328613281Q1015.6007080078125 -398.199951171875 1015.6007080078125 -349.39990234375V-73.4000244140625Q1015.6007080078125 -48.4000244140625 1022.3006591796875 -37.800048828125Q1029.0006103515625 -27.2000732421875 1043.6005249023438 -27.2000732421875Q1054.00048828125 -27.2000732421875 1063.5004577636719 -32.2000732421875Q1073.0004272460938 -37.2000732421875 1085.600341796875 -47.0L1096.4003295898438 -30.0Q1075.2003173828125 -13.39996337890625 1053.5001525878906 -3.199981689453125Q1031.7999877929688 7.0 998.9999389648438 7.0Q967.1997680664062 7.0 947.2997131347656 -3.100006103515625Q927.399658203125 -13.20001220703125 917.899658203125 -32.29998779296875Q908.399658203125 -51.39996337890625 908.1996459960938 -79.39984130859375Q882.3997192382812 -36.79998779296875 846.0997924804688 -14.899993896484375Q809.7998657226562 7.0 761.9998168945312 7.0ZM809.800537109375 -41.00048828125Q838.4002685546875 -41.00048828125 862.9000244140625 -56.900299072265625Q887.3997802734375 -72.80010986328125 907.599609375 -105.19976806640625V-304.199951171875Q896.5996704101562 -288.0 875.8998107910156 -276.29998779296875Q855.199951171875 -264.5999755859375 831.2001342773438 -252.79995727539062Q807.2003173828125 -240.99993896484375 785.50048828125 -225.59994506835938Q763.8006591796875 -210.199951171875 749.7007751464844 -186.30001831054688Q735.6008911132812 -162.40008544921875 735.6008911132812 -125.20025634765625Q735.6008911132812 -85.60028076171875 755.7008056640625 -63.300384521484375Q775.8007202148438 -41.00048828125 809.800537109375 -41.00048828125Z M1464.2006225585938 -529.800048828125Q1503.8007202148438 -529.800048828125 1529.500732421875 -519.5000305175781Q1555.2007446289062 -509.20001220703125 1571.6007080078125 -491.4000244140625Q1589.8006591796875 -471.800048828125 1597.6006469726562 -441.800048828125Q1605.400634765625 -411.800048828125 1605.400634765625 -360.800048828125V-93.0Q1605.400634765625 -51.0 1621.9005737304688 -36.0Q1638.4005126953125 -21.0 1677.400390625 -21.0V0.0Q1659.8003540039062 -1.0 1623.7002868652344 -2.5Q1587.6002197265625 -4.0 1553.400146484375 -4.0Q1518.6000366210938 -4.0 1485.3999328613281 -2.5Q1452.1998291015625 -1.0 1435.3997802734375 0.0V-21.0Q1469.399658203125 -21.0 1483.3995971679688 -36.0Q1497.3995361328125 -51.0 1497.3995361328125 -93.0V-389.200439453125Q1497.3995361328125 -418.2003173828125 1492.3995361328125 -441.8001708984375Q1487.3995361328125 -465.4000244140625 1471.2996215820312 -479.59991455078125Q1455.19970703125 -493.7998046875 1422.7999267578125 -493.7998046875Q1385.6002197265625 -493.7998046875 1357.1004028320312 -472.79998779296875Q1328.6005859375 -451.8001708984375 1312.5006713867188 -415.30047607421875Q1296.4007568359375 -378.80078125 1296.4007568359375 -333.8011474609375V-93.0Q1296.4007568359375 -51.0 1310.5007019042969 -36.0Q1324.6006469726562 -21.0 1358.4005126953125 -21.0V0.0Q1341.8004760742188 -1.0 1309.2004089355469 -2.5Q1276.600341796875 -4.0 1242.4002685546875 -4.0Q1207.6001586914062 -4.0 1171.0000610351562 -2.5Q1134.3999633789062 -1.0 1116.39990234375 0.0V-21.0Q1155.3997802734375 -21.0 1171.8997192382812 -36.0Q1188.399658203125 -51.0 1188.399658203125 -93.0V-406.800048828125Q1188.399658203125 -451.800048828125 1173.19970703125 -473.300048828125Q1157.999755859375 -494.800048828125 1116.39990234375 -494.800048828125V-515.800048828125Q1148.39990234375 -512.800048828125 1178.39990234375 -512.800048828125Q1211.6001586914062 -512.800048828125 1241.5003662109375 -516.300048828125Q1271.4005737304688 -519.800048828125 1296.4007568359375 -526.800048828125V-418.0006103515625Q1322.000732421875 -480.4002685546875 1367.3006591796875 -505.10015869140625Q1412.6005859375 -529.800048828125 1464.2006225585938 -529.800048828125Z M2668.1998291015625 -708.0Q2690.7999267578125 -707.0 2727.5000915527344 -706.0Q2764.2002563476562 -705.0 2800.200439453125 -705.0Q2847.8004760742188 -705.0 2891.4005126953125 -706.0Q2935.0005493164062 -707.0 2953.2005615234375 -707.0Q3080.4009399414062 -707.0 3143.3011169433594 -652.0Q3206.2012939453125 -597.0 3206.2012939453125 -510.0Q3206.2012939453125 -474.0 3193.6012573242188 -434.5Q3181.001220703125 -395.0 3150.201141357422 -361.5Q3119.4010620117188 -328.0 3066.1009216308594 -307.0Q3012.80078125 -286.0 2931.2005615234375 -286.0H2833.200439453125V-306.0H2921.2005615234375Q2988.2003173828125 -306.0 3023.5001831054688 -333.0Q3058.800048828125 -360.0 3071.5 -404.0Q3084.199951171875 -448.0 3084.199951171875 -499.0Q3084.199951171875 -594.0 3049.900146484375 -641.0Q3015.600341796875 -688.0 2932.2008056640625 -688.0Q2888.6009521484375 -688.0 2875.4010009765625 -671.0Q2862.2010498046875 -654.0 2862.2010498046875 -602.0V-108.0001220703125Q2862.2010498046875 -71.00006103515625 2869.9010620117188 -52.60003662109375Q2877.60107421875 -34.20001220703125 2900.0010986328125 -28.20001220703125Q2922.401123046875 -22.20001220703125 2965.201171875 -20.60003662109375V0.0Q2937.60107421875 -1.79998779296875 2894.6008911132812 -2.399993896484375Q2851.6007080078125 -3.0 2806.4004516601562 -3.0Q2766.0003662109375 -3.0 2729.6002197265625 -2.399993896484375Q2693.2000732421875 -1.79998779296875 2668.1998291015625 0.0V-20.0Q2701.5997924804688 -22.0 2718.5997619628906 -28.0Q2735.5997314453125 -34.0 2741.3997192382812 -52.0Q2747.19970703125 -70.0 2747.19970703125 -106.0V-602.0Q2747.19970703125 -639.0 2741.3997192382812 -656.5Q2735.5997314453125 -674.0 2718.499755859375 -680.5Q2701.3997802734375 -687.0 2668.1998291015625 -688.0Z M3390.9998168945312 7.0Q3348.7997436523438 7.0 3318.7997436523438 -9.000030517578125Q3288.7997436523438 -25.00006103515625 3273.6997680664062 -53.2000732421875Q3258.5997924804688 -81.40008544921875 3258.5997924804688 -117.4000244140625Q3258.5997924804688 -161.0 3278.799774169922 -188.69998168945312Q3298.999755859375 -216.39996337890625 3330.699737548828 -233.29995727539062Q3362.3997192382812 -250.199951171875 3397.5997009277344 -261.5999450683594Q3432.7996826171875 -272.99993896484375 3464.4996643066406 -283.49993896484375Q3496.1996459960938 -293.99993896484375 3516.399627685547 -308.0999450683594Q3536.599609375 -322.199951171875 3536.599609375 -345.199951171875V-412.60028076171875Q3536.599609375 -449.39996337890625 3525.4996948242188 -470.7999267578125Q3514.3997802734375 -492.19989013671875 3494.599853515625 -500.9999694824219Q3474.7999267578125 -509.800048828125 3447.9998779296875 -509.800048828125Q3424.7999877929688 -509.800048828125 3399.1001586914062 -503.3000793457031Q3373.4003295898438 -496.80010986328125 3357.6004028320312 -477.60028076171875Q3379.8005981445312 -471.8001708984375 3394.2006225585938 -454.3000793457031Q3408.6006469726562 -436.79998779296875 3408.6006469726562 -411.199951171875Q3408.6006469726562 -383.19976806640625 3390.2005004882812 -366.9996643066406Q3371.8003540039062 -350.799560546875 3344.2001953125 -350.799560546875Q3313.0000610351562 -350.799560546875 3297.7999572753906 -370.5996398925781Q3282.599853515625 -390.39971923828125 3282.599853515625 -416.19989013671875Q3282.599853515625 -443.199951171875 3296.099884033203 -460.3000183105469Q3309.5999145507812 -477.40008544921875 3331.800048828125 -492.20013427734375Q3356.2001342773438 -508.400146484375 3393.8002014160156 -519.10009765625Q3431.4002685546875 -529.800048828125 3477.4002685546875 -529.800048828125Q3520.0003662109375 -529.800048828125 3551.6005249023438 -520.300048828125Q3583.20068359375 -510.800048828125 3604.4008178710938 -490.19989013671875Q3629.4007568359375 -466.59991455078125 3637.000732421875 -432.3999328613281Q3644.6007080078125 -398.199951171875 3644.6007080078125 -349.39990234375V-73.4000244140625Q3644.6007080078125 -48.4000244140625 3651.3006591796875 -37.800048828125Q3658.0006103515625 -27.2000732421875 3672.6005249023438 -27.2000732421875Q3683.00048828125 -27.2000732421875 3692.500457763672 -32.2000732421875Q3702.0004272460938 -37.2000732421875 3714.600341796875 -47.0L3725.4003295898438 -30.0Q3704.2003173828125 -13.39996337890625 3682.5001525878906 -3.199981689453125Q3660.7999877929688 7.0 3627.9999389648438 7.0Q3596.1997680664062 7.0 3576.2997131347656 -3.100006103515625Q3556.399658203125 -13.20001220703125 3546.899658203125 -32.29998779296875Q3537.399658203125 -51.39996337890625 3537.1996459960938 -79.39984130859375Q3511.3997192382812 -36.79998779296875 3475.0997924804688 -14.899993896484375Q3438.7998657226562 7.0 3390.9998168945312 7.0ZM3438.800537109375 -41.00048828125Q3467.4002685546875 -41.00048828125 3491.9000244140625 -56.900299072265625Q3516.3997802734375 -72.80010986328125 3536.599609375 -105.19976806640625V-304.199951171875Q3525.5996704101562 -288.0 3504.8998107910156 -276.29998779296875Q3484.199951171875 -264.5999755859375 3460.2001342773438 -252.79995727539062Q3436.2003173828125 -240.99993896484375 3414.50048828125 -225.59994506835938Q3392.8006591796875 -210.199951171875 3378.7007751464844 -186.30001831054688Q3364.6008911132812 -162.40008544921875 3364.6008911132812 -125.20025634765625Q3364.6008911132812 -85.60028076171875 3384.7008056640625 -63.300384521484375Q3404.8007202148438 -41.00048828125 3438.800537109375 -41.00048828125Z M4067.2005615234375 -529.800048828125Q4096.000671386719 -529.800048828125 4116.400665283203 -517.8999938964844Q4136.8006591796875 -505.99993896484375 4147.600616455078 -487.29986572265625Q4158.400573730469 -468.59979248046875 4158.400573730469 -446.3997802734375Q4158.400573730469 -417.3995361328125 4140.900451660156 -396.8994445800781Q4123.400329589844 -376.39935302734375 4094.400146484375 -376.39935302734375Q4068.7998657226562 -376.39935302734375 4051.499786376953 -391.1994323730469Q4034.19970703125 -405.99951171875 4034.19970703125 -432.39959716796875Q4034.19970703125 -454.3997802734375 4045.499755859375 -469.5998840332031Q4056.7998046875 -484.79998779296875 4071.5999145507812 -494.2000732421875Q4062.3997802734375 -502.199951171875 4048.3997802734375 -500.79986572265625Q4021.2000122070312 -499.7998046875 3998.2001953125 -483.1999206542969Q3975.2003784179688 -466.60003662109375 3959.2005004882812 -441.1002502441406Q3943.2006225585938 -415.6004638671875 3934.3006896972656 -386.8006896972656Q3925.4007568359375 -358.00091552734375 3925.4007568359375 -332.60107421875V-103.0Q3925.4007568359375 -54.20001220703125 3952.200653076172 -37.600006103515625Q3979.0005493164062 -21.0 4027.4005126953125 -21.0V0.0Q4004.4005126953125 -1.0 3961.700469970703 -2.5Q3919.0004272460938 -4.0 3871.8004150390625 -4.0Q3835.6002807617188 -4.0 3799.600128173828 -2.5Q3763.5999755859375 -1.0 3745.39990234375 0.0V-21.0Q3784.3997802734375 -21.0 3800.8997192382812 -36.0Q3817.399658203125 -51.0 3817.399658203125 -93.0V-406.800048828125Q3817.399658203125 -451.800048828125 3802.19970703125 -473.300048828125Q3786.999755859375 -494.800048828125 3745.39990234375 -494.800048828125V-515.800048828125Q3777.39990234375 -512.800048828125 3807.39990234375 -512.800048828125Q3840.6001586914062 -512.800048828125 3870.5003662109375 -516.300048828125Q3900.4005737304688 -519.800048828125 3925.4007568359375 -526.800048828125V-412.40069580078125Q3936.80078125 -440.8006591796875 3957.000762939453 -467.70050048828125Q3977.2007446289062 -494.600341796875 4005.3006896972656 -512.2001953125Q4033.400634765625 -529.800048828125 4067.2005615234375 -529.800048828125Z M4362.4007568359375 -681.0V-515.0000610351562H4500.400146484375V-495.00006103515625H4362.4007568359375V-102.39971923828125Q4362.4007568359375 -61.00006103515625 4377.400634765625 -44.100189208984375Q4392.4005126953125 -27.2003173828125 4419.600341796875 -27.2003173828125Q4445.800109863281 -27.2003173828125 4466.4000244140625 -48.10009765625Q4486.999938964844 -68.9998779296875 4502.39990234375 -118.599365234375L4521.399841308594 -112.19927978515625Q4509.19970703125 -58.59954833984375 4478.699645996094 -22.299774169921875Q4448.1995849609375 14.0 4388.999694824219 14.0Q4355.19970703125 14.0 4332.299652099609 5.5Q4309.399597167969 -3.0 4292.399597167969 -19.20001220703125Q4270.399597167969 -42.0 4262.399627685547 -74.10000610351562Q4254.399658203125 -106.20001220703125 4254.399658203125 -159.0V-495.00006103515625H4162.39990234375V-515.0000610351562H4254.399658203125V-660.9996337890625Q4285.0 -661.7996215820312 4312.100250244141 -666.2997131347656Q4339.200500488281 -670.7998046875 4362.4007568359375 -681.0Z M4878.200622558594 -529.800048828125Q4917.800720214844 -529.800048828125 4943.500732421875 -519.5000305175781Q4969.200744628906 -509.20001220703125 4985.6007080078125 -491.4000244140625Q5003.8006591796875 -471.800048828125 5011.600646972656 -441.800048828125Q5019.400634765625 -411.800048828125 5019.400634765625 -360.800048828125V-93.0Q5019.400634765625 -51.0 5035.900573730469 -36.0Q5052.4005126953125 -21.0 5091.400390625 -21.0V0.0Q5073.800354003906 -1.0 5037.700286865234 -2.5Q5001.6002197265625 -4.0 4967.400146484375 -4.0Q4932.600036621094 -4.0 4899.399932861328 -2.5Q4866.1998291015625 -1.0 4849.3997802734375 0.0V-21.0Q4883.399658203125 -21.0 4897.399597167969 -36.0Q4911.3995361328125 -51.0 4911.3995361328125 -93.0V-389.200439453125Q4911.3995361328125 -418.2003173828125 4906.3995361328125 -441.8001708984375Q4901.3995361328125 -465.4000244140625 4885.299621582031 -479.59991455078125Q4869.19970703125 -493.7998046875 4836.7999267578125 -493.7998046875Q4799.6002197265625 -493.7998046875 4771.100402832031 -472.79998779296875Q4742.6005859375 -451.8001708984375 4726.500671386719 -415.30047607421875Q4710.4007568359375 -378.80078125 4710.4007568359375 -333.8011474609375V-93.0Q4710.4007568359375 -51.0 4724.500701904297 -36.0Q4738.600646972656 -21.0 4772.4005126953125 -21.0V0.0Q4755.800476074219 -1.0 4723.200408935547 -2.5Q4690.600341796875 -4.0 4656.4002685546875 -4.0Q4621.600158691406 -4.0 4585.000061035156 -2.5Q4548.399963378906 -1.0 4530.39990234375 0.0V-21.0Q4569.3997802734375 -21.0 4585.899719238281 -36.0Q4602.399658203125 -51.0 4602.399658203125 -93.0V-406.800048828125Q4602.399658203125 -451.800048828125 4587.19970703125 -473.300048828125Q4571.999755859375 -494.800048828125 4530.39990234375 -494.800048828125V-515.800048828125Q4562.39990234375 -512.800048828125 4592.39990234375 -512.800048828125Q4625.600158691406 -512.800048828125 4655.5003662109375 -516.300048828125Q4685.400573730469 -519.800048828125 4710.4007568359375 -526.800048828125V-418.0006103515625Q4736.000732421875 -480.4002685546875 4781.3006591796875 -505.10015869140625Q4826.6005859375 -529.800048828125 4878.200622558594 -529.800048828125Z M5371.2001953125 -529.800048828125Q5459.2001953125 -529.800048828125 5508.900207519531 -476.7000732421875Q5558.6002197265625 -423.60009765625 5558.6002197265625 -309.0H5213.6007080078125L5212.400695800781 -328.0H5452.599609375Q5454.399597167969 -377.0 5445.399658203125 -418.5Q5436.399719238281 -460.0 5416.999847412109 -485.0Q5397.5999755859375 -510.0 5366.600158691406 -510.0Q5324.400390625 -510.0 5292.600616455078 -464.7000427246094Q5260.800842285156 -419.40008544921875 5254.200866699219 -318.800048828125L5257.40087890625 -314.0Q5255.600891113281 -300.00006103515625 5254.8009033203125 -283.60015869140625Q5254.000915527344 -267.20025634765625 5254.000915527344 -250.600341796875Q5254.000915527344 -182.2003173828125 5275.100860595703 -135.200439453125Q5296.2008056640625 -88.2005615234375 5329.900695800781 -64.80068969726562Q5363.6005859375 -41.40081787109375 5399.400451660156 -41.40081787109375Q5426.200256347656 -41.40081787109375 5451.700164794922 -49.800750732421875Q5477.2000732421875 -58.20068359375 5500.2000732421875 -78.70059204101562Q5523.2000732421875 -99.20050048828125 5541.200134277344 -134.8004150390625L5560.60009765625 -127.200439453125Q5549.400085449219 -92.80035400390625 5524.100067138672 -60.100250244140625Q5498.800048828125 -27.400146484375 5460.0 -6.7000732421875Q5421.199951171875 14.0 5369.1998291015625 14.0Q5298.7999267578125 14.0 5247.099914550781 -17.59991455078125Q5195.39990234375 -49.1998291015625 5167.199859619141 -107.99984741210938Q5138.999816894531 -166.79986572265625 5138.999816894531 -247.8001708984375Q5138.999816894531 -337.4002685546875 5168.199890136719 -400.30023193359375Q5197.399963378906 -463.2001953125 5249.900054931641 -496.5001220703125Q5302.400146484375 -529.800048828125 5371.2001953125 -529.800048828125Z M5940.2005615234375 -529.800048828125Q5969.000671386719 -529.800048828125 5989.400665283203 -517.8999938964844Q6009.8006591796875 -505.99993896484375 6020.600616455078 -487.29986572265625Q6031.400573730469 -468.59979248046875 6031.400573730469 -446.3997802734375Q6031.400573730469 -417.3995361328125 6013.900451660156 -396.8994445800781Q5996.400329589844 -376.39935302734375 5967.400146484375 -376.39935302734375Q5941.799865722656 -376.39935302734375 5924.499786376953 -391.1994323730469Q5907.19970703125 -405.99951171875 5907.19970703125 -432.39959716796875Q5907.19970703125 -454.3997802734375 5918.499755859375 -469.5998840332031Q5929.7998046875 -484.79998779296875 5944.599914550781 -494.2000732421875Q5935.3997802734375 -502.199951171875 5921.3997802734375 -500.79986572265625Q5894.200012207031 -499.7998046875 5871.2001953125 -483.1999206542969Q5848.200378417969 -466.60003662109375 5832.200500488281 -441.1002502441406Q5816.200622558594 -415.6004638671875 5807.300689697266 -386.8006896972656Q5798.4007568359375 -358.00091552734375 5798.4007568359375 -332.60107421875V-103.0Q5798.4007568359375 -54.20001220703125 5825.200653076172 -37.600006103515625Q5852.000549316406 -21.0 5900.4005126953125 -21.0V0.0Q5877.4005126953125 -1.0 5834.700469970703 -2.5Q5792.000427246094 -4.0 5744.8004150390625 -4.0Q5708.600280761719 -4.0 5672.600128173828 -2.5Q5636.5999755859375 -1.0 5618.39990234375 0.0V-21.0Q5657.3997802734375 -21.0 5673.899719238281 -36.0Q5690.399658203125 -51.0 5690.399658203125 -93.0V-406.800048828125Q5690.399658203125 -451.800048828125 5675.19970703125 -473.300048828125Q5659.999755859375 -494.800048828125 5618.39990234375 -494.800048828125V-515.800048828125Q5650.39990234375 -512.800048828125 5680.39990234375 -512.800048828125Q5713.600158691406 -512.800048828125 5743.5003662109375 -516.300048828125Q5773.400573730469 -519.800048828125 5798.4007568359375 -526.800048828125V-412.40069580078125Q5809.80078125 -440.8006591796875 5830.000762939453 -467.70050048828125Q5850.200744628906 -494.600341796875 5878.300689697266 -512.2001953125Q5906.400634765625 -529.800048828125 5940.2005615234375 -529.800048828125Z M6245.600280761719 -529.800048828125Q6286.400329589844 -529.800048828125 6315.500396728516 -517.5000915527344Q6344.6004638671875 -505.20013427734375 6358.00048828125 -494.8001708984375Q6391.4005126953125 -469.000244140625 6398.600524902344 -528.800048828125H6421.00048828125Q6419.00048828125 -500.60003662109375 6418.00048828125 -461.5Q6417.00048828125 -422.39996337890625 6417.00048828125 -356.7999267578125H6394.600524902344Q6389.000549316406 -393.7999267578125 6374.7005615234375 -428.99993896484375Q6360.400573730469 -464.199951171875 6332.900604248047 -486.9999694824219Q6305.400634765625 -509.79998779296875 6261.20068359375 -509.79998779296875Q6228.2008056640625 -509.79998779296875 6206.000885009766 -491.2000427246094Q6183.800964355469 -472.60009765625 6183.800964355469 -437.000244140625Q6183.800964355469 -407.000244140625 6201.800964355469 -385.1002197265625Q6219.800964355469 -363.2001953125 6248.6009521484375 -344.10015869140625Q6277.400939941406 -325.0001220703125 6310.200866699219 -302.60009765625Q6346.80078125 -278.40008544921875 6376.400695800781 -253.60009765625Q6406.0006103515625 -228.80010986328125 6423.7005615234375 -199.10012817382812Q6441.4005126953125 -169.400146484375 6441.4005126953125 -128.8001708984375Q6441.4005126953125 -83.00018310546875 6416.700469970703 -51.20013427734375Q6392.000427246094 -19.40008544921875 6352.100341796875 -2.700042724609375Q6312.200256347656 14.0 6264.200134277344 14.0Q6239.5999755859375 14.0 6218.799896240234 9.699951171875Q6197.999816894531 5.39990234375 6180.399841308594 -2.20013427734375Q6169.199768066406 -7.8001708984375 6158.499755859375 -14.300140380859375Q6147.799743652344 -20.80010986328125 6137.5997314453125 -27.20001220703125Q6127.5997314453125 -33.59991455078125 6119.799743652344 -24.69989013671875Q6111.999755859375 -15.79986572265625 6107.999755859375 7.0H6085.599792480469Q6087.599792480469 -25.0 6088.599792480469 -71.0Q6089.599792480469 -117.0 6089.599792480469 -193.0H6111.999755859375Q6118.799743652344 -137.60003662109375 6132.699798583984 -95.800048828125Q6146.599853515625 -54.00006103515625 6174.499847412109 -30.50006103515625Q6202.399841308594 -7.00006103515625 6249.599670410156 -7.00006103515625Q6268.799621582031 -7.00006103515625 6287.799530029297 -15.4000244140625Q6306.7994384765625 -23.79998779296875 6319.599365234375 -42.9998779296875Q6332.3992919921875 -62.19976806640625 6332.3992919921875 -93.99957275390625Q6332.3992919921875 -137.99957275390625 6301.499359130859 -166.39959716796875Q6270.599426269531 -194.79962158203125 6223.3995361328125 -226.7996826171875Q6188.599609375 -250.79974365234375 6158.099670410156 -274.4997863769531Q6127.5997314453125 -298.1998291015625 6108.599761962891 -327.6998596191406Q6089.599792480469 -357.19989013671875 6089.599792480469 -397.79986572265625Q6089.599792480469 -442.79986572265625 6111.299865722656 -471.9999084472656Q6132.999938964844 -501.199951171875 6168.800048828125 -515.5Q6204.600158691406 -529.800048828125 6245.600280761719 -529.800048828125Z" fill="#1A1410"/><path d="M2260.00048828125 -212.99993896484375Q2251.4005126953125 -197.7999267578125 2236.1004943847656 -182.09988403320312Q2220.8004760742188 -166.39984130859375 2197.200439453125 -155.49981689453125Q2173.6004028320312 -144.59979248046875 2139.400390625 -144.59979248046875Q2111.600341796875 -144.59979248046875 2086.1002807617188 -154.29983520507812Q2060.6002197265625 -163.9998779296875 2044.0001831054688 -186.699951171875Q2027.400146484375 -209.4000244140625 2027.400146484375 -247.80010986328125Q2027.400146484375 -309.80010986328125 2072.3001403808594 -349.30023193359375Q2117.2001342773438 -388.80035400390625 2196.4003295898438 -416.80035400390625Q2217.4005126953125 -424.400390625 2249.6005249023438 -435.20037841796875Q2281.800537109375 -446.0003662109375 2318.50048828125 -458.8003234863281Q2355.200439453125 -471.60028076171875 2391.400390625 -485.6002197265625Q2427.600341796875 -499.60015869140625 2456.6004028320312 -512.0001220703125Q2486.2003784179688 -525.0000610351562 2510.8004760742188 -540.0Q2535.4005737304688 -554.9999389648438 2550.6006774902344 -574.8999328613281Q2565.80078125 -594.7999267578125 2565.80078125 -621.6000366210938Q2565.80078125 -659.0000610351562 2537.2007751464844 -682.8000183105469Q2508.6007690429688 -706.5999755859375 2466.80078125 -706.5999755859375Q2442.8009033203125 -706.5999755859375 2435.8008422851562 -698.6000366210938Q2450.4010620117188 -691.5999755859375 2457.3011779785156 -679.4998779296875Q2464.2012939453125 -667.3997802734375 2464.2012939453125 -653.7996215820312Q2464.2012939453125 -636.5994873046875 2453.501220703125 -622.3994140625Q2442.8011474609375 -608.1993408203125 2426.0010375976562 -599.8993225097656Q2409.200927734375 -591.5993041992188 2390.4008178710938 -591.5993041992188Q2367.2005615234375 -591.5993041992188 2351.700408935547 -604.7994384765625Q2336.2002563476562 -617.9995727539062 2336.2002563476562 -640.7997436523438Q2336.2002563476562 -664.599853515625 2352.100311279297 -681.5999145507812Q2368.0003662109375 -698.5999755859375 2390.2005004882812 -708.0Q2408.2005615234375 -716.2000122070312 2427.900634765625 -719.1000061035156Q2447.6007080078125 -722.0 2466.0006713867188 -722.0Q2503.6007080078125 -722.0 2532.500762939453 -709.6999816894531Q2561.4008178710938 -697.3999633789062 2578.0008544921875 -671.0998840332031Q2594.6008911132812 -644.7998046875 2594.6008911132812 -601.599609375Q2594.6008911132812 -562.19921875 2579.1007080078125 -530.7990417480469Q2563.6005249023438 -499.39886474609375 2531.500213623047 -473.9988098144531Q2499.39990234375 -448.5987548828125 2449.99951171875 -426.39874267578125Q2422.7994995117188 -414.19879150390625 2385.9996337890625 -400.098876953125Q2349.1997680664062 -385.99896240234375 2309.0999450683594 -371.59906005859375Q2269.0001220703125 -357.19915771484375 2231.4002685546875 -343.89923095703125Q2193.8004150390625 -330.59930419921875 2164.200439453125 -319.1993408203125Q2142.2003173828125 -310.99932861328125 2118.400390625 -298.7993469238281Q2094.6004638671875 -286.599365234375 2078.800567626953 -268.59942626953125Q2063.0006713867188 -250.5994873046875 2063.0006713867188 -224.79962158203125Q2063.0006713867188 -193.59967041015625 2087.400604248047 -177.59976196289062Q2111.800537109375 -161.599853515625 2143.400390625 -161.599853515625Q2174.0003662109375 -161.599853515625 2195.100372314453 -173.29983520507812Q2216.2003784179688 -184.99981689453125 2229.0003967285156 -199.1998291015625Q2241.8004150390625 -213.39984130859375 2246.200439453125 -221.59991455078125ZM2144.0006713867188 -562.000244140625Q2169.8005981445312 -562.000244140625 2186.7005615234375 -576.2002258300781Q2203.6005249023438 -590.4002075195312 2203.6005249023438 -615.0001220703125Q2203.6005249023438 -645.5999145507812 2178.3006896972656 -663.3998107910156Q2153.0008544921875 -681.19970703125 2115.0010375976562 -681.19970703125Q2075.8011474609375 -681.19970703125 2044.1011657714844 -662.1997375488281Q2012.4011840820312 -643.1997680664062 1994.1011657714844 -610.1997985839844Q1975.8011474609375 -577.1998291015625 1975.8011474609375 -534.3998413085938Q1975.8011474609375 -517.0 1980.0010986328125 -498.3001708984375Q1984.2010498046875 -479.600341796875 1994.0009155273438 -462.00048828125Q2012.0009155273438 -465.00048828125 2030.0009155273438 -466.50048828125Q2048.0009155273438 -468.00048828125 2057.0009155273438 -468.00048828125Q2093.0009155273438 -468.00048828125 2093.0009155273438 -447.00048828125Q2093.0009155273438 -436.00048828125 2083.0009155273438 -431.00048828125Q2073.0009155273438 -426.00048828125 2062.0009155273438 -426.00048828125Q2043.0009155273438 -426.00048828125 2023.5009155273438 -434.50048828125Q2004.0009155273438 -443.00048828125 1993.0009155273438 -448.00048828125Q1951.2011108398438 -435.00048828125 1918.9012451171875 -405.0004577636719Q1886.6013793945312 -375.00042724609375 1868.3014526367188 -334.70037841796875Q1850.0015258789062 -294.40032958984375 1850.0015258789062 -247.80029296875Q1850.0015258789062 -187.4002685546875 1880.8014221191406 -146.70025634765625Q1911.601318359375 -106.000244140625 1966.6011962890625 -85.000244140625Q2021.60107421875 -64.000244140625 2092.801025390625 -64.000244140625Q2148.6008911132812 -64.000244140625 2197.900848388672 -76.50021362304688Q2247.2008056640625 -89.00018310546875 2284.800811767578 -113.00015258789062Q2322.4008178710938 -137.0001220703125 2343.900848388672 -171.70013427734375Q2365.40087890625 -206.400146484375 2365.40087890625 -250.000244140625Q2365.40087890625 -287.20025634765625 2347.0008850097656 -325.0002136230469Q2328.6008911132812 -362.8001708984375 2285.2008056640625 -386.80010986328125L2298.6007690429688 -394.60015869140625Q2340.600830078125 -367.00030517578125 2363.100860595703 -327.6003112792969Q2385.6008911132812 -288.2003173828125 2385.6008911132812 -238.2003173828125Q2385.6008911132812 -189.80035400390625 2363.5008850097656 -144.60031127929688Q2341.40087890625 -99.4002685546875 2297.7008361816406 -63.7001953125Q2254.0007934570312 -28.0001220703125 2190.400665283203 -7.00006103515625Q2126.800537109375 14.0 2043.0003051757812 14.0Q1954.4002685546875 14.0 1887.900146484375 -11.29998779296875Q1821.4000244140625 -36.5999755859375 1784.1999206542969 -84.20001220703125Q1746.9998168945312 -131.800048828125 1746.9998168945312 -199.8001708984375Q1746.9998168945312 -261.4002685546875 1777.0999145507812 -313.100341796875Q1807.2000122070312 -364.8004150390625 1859.7002563476562 -401.90045166015625Q1912.2005004882812 -439.00048828125 1980.0009155273438 -456.00048828125Q1942.20068359375 -474.00042724609375 1923.1006164550781 -503.400390625Q1904.0005493164062 -532.8003540039062 1904.0005493164062 -565.4003295898438Q1904.0005493164062 -610.000244140625 1934.5005187988281 -640.3001708984375Q1965.00048828125 -670.60009765625 2010.2004699707031 -686.300048828125Q2055.4004516601562 -702.0 2101.00048828125 -702.0Q2159.400634765625 -702.0 2192.2005920410156 -678.5000305175781Q2225.0005493164062 -655.0000610351562 2225.0005493164062 -617.2001342773438Q2225.0005493164062 -580.0001831054688 2198.1005859375 -562.0002136230469Q2171.2006225585938 -544.000244140625 2142.6007080078125 -544.000244140625Z" fill="url(#amber)"/></svg>
